[mov,mp4,m4a,3gp,3g2,mj2 @ 0x56372650d280] stream 0, missing mandatory atoms, broken header
Too many packets buffered for output stream 0:1.
# Ubuntu 20.04.03 WSL with ffmpeg installed:
#> ffmpeg -v error -i "2022-10-04 19-11-45-duplicate-moov - Copy.mp4" -f null - > error.log 2>&1

alastair@MIDNIGHT:/mnt/c/users/alastair/downloads$ ffprobe "2022-10-04 19-11-45-duplicate-moov - Copy.mp4"
ffprobe version 4.2.7-0ubuntu0.1 Copyright (c) 2007-2022 the FFmpeg developers
  built with gcc 9 (Ubuntu 9.4.0-1ubuntu1~20.04.1)
  configuration: --prefix=/usr --extra-version=0ubuntu0.1 --toolchain=hardened --libdir=/usr/lib/x86_64-linux-gnu --incdir=/usr/include/x86_64-linux-gnu --arch=amd64 --enable-gpl --disable-stripping --enable-avresample --disable-filter=resample --enable-avisynth --enable-gnutls --enable-ladspa --enable-libaom --enable-libass --enable-libbluray --enable-libbs2b --enable-libcaca --enable-libcdio --enable-libcodec2 --enable-libflite --enable-libfontconfig --enable-libfreetype --enable-libfribidi --enable-libgme --enable-libgsm --enable-libjack --enable-libmp3lame --enable-libmysofa --enable-libopenjpeg --enable-libopenmpt --enable-libopus --enable-libpulse --enable-librsvg --enable-librubberband --enable-libshine --enable-libsnappy --enable-libsoxr --enable-libspeex --enable-libssh --enable-libtheora --enable-libtwolame --enable-libvidstab --enable-libvorbis --enable-libvpx --enable-libwavpack --enable-libwebp --enable-libx265 --enable-libxml2 --enable-libxvid --enable-libzmq --enable-libzvbi --enable-lv2 --enable-omx --enable-openal --enable-opencl --enable-opengl --enable-sdl2 --enable-libdc1394 --enable-libdrm --enable-libiec61883 --enable-nvenc --enable-chromaprint --enable-frei0r --enable-libx264 --enable-shared
  libavutil      56. 31.100 / 56. 31.100
  libavcodec     58. 54.100 / 58. 54.100
  libavformat    58. 29.100 / 58. 29.100
  libavdevice    58.  8.100 / 58.  8.100
  libavfilter     7. 57.100 /  7. 57.100
  libavresample   4.  0.  0 /  4.  0.  0
  libswscale      5.  5.100 /  5.  5.100
  libswresample   3.  5.100 /  3.  5.100
  libpostproc    55.  5.100 / 55.  5.100
[mov,mp4,m4a,3gp,3g2,mj2 @ 0x565033f7ca00] stream 0, missing mandatory atoms, broken header
[mov,mp4,m4a,3gp,3g2,mj2 @ 0x565033f7ca00] Could not find codec parameters for stream 0 (Video: h264 (avc1 / 0x31637661), none(tv, bt709), 1920x1080): unspecified pixel format
Consider increasing the value for the 'analyzeduration' and 'probesize' options
Input #0, mov,mp4,m4a,3gp,3g2,mj2, from '2022-10-04 19-11-45-duplicate-moov - Copy.mp4':
  Metadata:
    major_brand     : isom
    minor_version   : 512
    compatible_brands: isomiso2avc1mp41
    encoder         : Lavf59.16.100
  Duration: 00:16:16.67, start: 0.000000, bitrate: 32039 kb/s
    Stream #0:0(und): Video: h264 (avc1 / 0x31637661), none(tv, bt709), 1920x1080, 60 fps, 90k tbr, 90k tbn, 180k tbc (default)
    Metadata:
      handler_name    : VideoHandler
    Stream #0:1(und): Audio: aac (LC) (mp4a / 0x6134706D), 48000 Hz, stereo, fltp, 193 kb/s (default)
    Metadata:
      handler_name    : SoundHandler
      
# unspecified pixel format : pixel format should be "yuv480p" which is incidentally not what you write to select that option in mp4 metadata
